# .PCD v0.7 - Point Cloud Data file format
VERSION 0.7
FIELDS x y z intensity
SIZE 4 4 4 4
TYPE F F F F
COUNT 1 1 1 1
WIDTH 375
HEIGHT 1
VIEWPOINT 0 0 0 1 0 0 0
POINTS 375
DATA ascii
0.41827741 -1.5239993 -0.50270319 484
-1.4156501 -1.454766 -0.51326805 41
0.034859803 -1.3995306 -0.54684609 85
-2.0571744 1.9384533 -0.51145977 120
0.52556956 2.1582649 -0.54912233 302
-0.62181509 2.2931759 -0.51934153 126
0.33183303 2.3456416 -0.53238881 32
0.52768606 2.4238219 -0.56026942 293
-1.282563 2.51372 -0.52527869 69
-1.0638227 2.6183748 -0.52990377 76
-0.6671192 2.7421079 -0.53568316 240
-1.7400668 -1.5819055 -0.40626353 328
0.44767168 -1.5106801 -0.43553552 284
-3.6798544 -1.4354898 -0.40386432 258
-2.0835977 -1.4733089 -0.43978196 127
-1.2199557 -1.167698 -0.46226633 136
-1.3807305 -1.0573715 -0.47522756 152
-3.4472075 0.45831004 -0.43546492 35
-1.3964629 0.48625422 -0.48578188 129
-1.2875922 0.65338206 -0.4764111 93
-4.1255889 0.80078363 -0.43968135 12
-3.2804606 0.8540507 -0.42779577 63
-2.3130364 0.97926319 -0.44257617 163
-2.6417344 2.098681 -0.44174597 168
-2.2071683 2.0755577 -0.48493105 103
-2.1780918 2.1097343 -0.40072495 421
-0.70506412 2.3711684 -0.41497558 42
-0.18323848 2.3168464 -0.44597545 50
0.25334615 2.3968811 -0.46923321 36
-0.49708647 2.5744374 -0.44413251 1228
-0.74855936 2.7958872 -0.40601376 903
-0.3348529 2.8502357 -0.48980665 413
-1.8051846 2.9851503 -0.47487795 76
-1.9087027 3.7404673 -0.48756656 70
-2.7965262 4.1572189 -0.43166125 144
-1.7064449 -1.5960515 -0.35501203 864
0.44522798 -1.5372295 -0.37697229 460
-1.9255065 -1.3631051 -0.32392037 391.5
0.61998039 -0.68746471 -0.38501319 59
-3.2761295 -0.45952973 -0.33900616 27
-5.0490232 0.48520872 -0.3847267 9
0.54736739 0.74872375 -0.39379993 51
-2.5471077 0.9734875 -0.34628677 364
-2.2673695 0.98895794 -0.38431495 753
-4.841619 1.0124038 -0.37924466 7
0.52852929 1.157144 -0.38065049 13
-2.4357264 1.2161664 -0.34864274 264
0.52385104 1.3366445 -0.39797258 147
0.51556909 1.5986551 -0.37956992 263
-2.4372635 1.9776391 -0.34446463 576
0.48927912 1.9086238 -0.34513837 93
-0.24432844 2.3889964 -0.34208262 683
-1.0155537 2.5113585 -0.37458304 36
0.4713729 2.8130219 -0.35723239 83
0.31521064 3.2995245 -0.31891108 293
-1.7857038 3.8667963 -0.37691808 371
0.45905161 -1.533435 -0.25919327 501.33334
-3.6801505 -1.4308803 -0.25148204 233.5
-1.7777838 -1.3641282 -0.22916658 492
-2.152715 -1.1412349 -0.21438447 33
-3.2962143 -0.5368427 -0.24817362 80
-4.8128915 -0.25442433 -0.26052493 49
-2.4932952 0.96811712 -0.24552965 614.5
-0.006321026 2.2757092 -0.21502653 11
0.013878874 2.296253 -0.28184453 11
-0.24822114 2.3691373 -0.28862199 1473
-0.5928334 2.760088 -0.25857058 460
0.53966266 2.9620264 -0.26110145 360.5
0.34631455 3.2660091 -0.24774015 468
-2.0079353 3.8272753 -0.28868222 159
-0.54691482 -1.6512954 -0.11955892 636
-0.34082451 -1.6437025 -0.10016568 11
-0.25019968 -1.6192722 -0.13272384 9
-1.6852235 -1.592741 -0.14941491 933.5
0.45275271 -1.5234355 -0.1427803 738.33331
-3.6734788 -1.4206432 -0.10229564 185
-1.9249443 -1.3590897 -0.1747683 443
-1.770276 -1.3585021 -0.11940032 492
-2.1226888 -1.1459385 -0.12799323 55
-4.3780522 -0.49007475 -0.11668984 94
-2.5002425 1.0941091 -0.15669303 845
0.53151464 1.7116538 -0.13886562 565
-2.4221609 2.0327995 -0.10672116 602
-0.026223129 2.2773511 -0.1674595 46
-0.9285875 2.3703427 -0.17354159 39
-0.63064802 2.4629619 -0.17809373 39
-0.39319238 2.559 -0.18524538 773
0.31924236 3.2886751 -0.15868425 271
-0.48794749 -1.7124513 -0.018604621 8
-0.54867065 -1.660804 -0.054662321 434
-0.22454305 -1.6518118 -0.055934701 6
-1.6659508 -1.5935479 -0.037648283 884
0.46685588 -1.5404799 -0.064047255 416
-3.6452656 -1.473109 -0.017614752 147
0.45878726 -1.4862423 -0.028878918 190
-4.1961784 -1.3456439 -0.01989153 134
-1.9349222 -1.3518467 -0.036637787 406
-1.6692861 -1.3710837 -0.05730341 716
-2.119962 -1.1397169 -0.03660417 62
-4.4614677 -0.45541281 -0.022496752 17
-2.4917097 0.96656823 -0.022307565 23
-2.5027215 1.0335141 -0.081238568 833
-2.4099526 2.1135433 -0.040319096 435
-0.97099024 2.3970249 -0.050095014 49
-0.32176688 2.5155265 -0.059016638 565
0.49962202 2.5942924 -0.0025360137 405
-0.54252702 -1.673413 0.069486983 275
-0.15474282 -1.6736681 0.023145329 11
-1.6541647 -1.5943742 0.048543923 840
0.45111325 -1.5234064 0.049467176 497.66666
-3.863791 -1.3832626 0.091884837 92
-1.9388099 -1.312699 0.051391982 283
-2.1521549 -1.1673473 0.054414093 30
-4.3998561 -0.48860911 0.096986301 75
-2.4935169 1.019902 0.078272909 847.5
-2.4182107 2.0551529 0.080015771 562.5
-0.74215484 2.2948973 0.015181003 127
-0.67945844 2.3172276 0.066294596 52
-0.99422669 2.4433568 0.019590937 27
-0.46084252 2.563854 0.011081772 582
-0.38961843 2.5755534 0.066254795 548
0.33950487 3.2854064 0.036408171 317.5
-3.6209743 -1.6707315 0.17565438 7
-2.3189857 -1.6117268 0.19692379 617
-0.54065943 -1.6648382 0.17423172 305.5
-0.0508825 -1.6473452 0.17899026 10
0.45545694 -1.5188351 0.16262591 488.33334
-3.8450296 -1.3875382 0.18021116 62
-4.5174084 -0.45623085 0.19787268 11
-2.4926457 0.98190284 0.17722264 500
-0.2547693 2.2622275 0.1667362 249
-0.9240402 2.3852725 0.19763479 20
0.017113544 2.3480251 0.11547684 20
0.2509492 2.3003013 0.16218419 120
-0.6004802 2.6130962 0.14132732 347
-0.37023824 2.6274638 0.13641238 531
-0.55644321 -1.6436834 0.25750619 527.5
-0.15206058 -1.6027145 0.29259157 8
-0.094902143 -1.6544689 0.21817572 12
-2.3157084 -1.5982382 0.25939721 472
0.45900589 -1.5182786 0.2602095 357.5
-3.6385911 -1.4803966 0.2762785 234
-1.3444769 -1.4200108 0.27304173 666
-2.4879725 0.98728007 0.27209568 309
-2.3743291 2.200428 0.2724711 84
0.12950107 2.2266343 0.21588586 904
-0.033681866 2.4452136 0.26715598 758.5
-0.66870385 2.5047174 0.26367694 834
-1.9987835 2.6890008 0.27323857 51
-0.6516555 2.7279382 0.21109065 858
-1.9659102 2.9101291 0.20528156 196
-1.8736975 3.2537348 0.29987827 6
-1.9686207 3.5853486 0.23366944 14
-2.3241229 -1.6063902 0.36685336 452.5
-0.55511713 -1.6444433 0.36545819 537.66669
0.112519 -1.6071428 0.36997834 262
0.45510852 -1.524647 0.34029412 561.5
-3.6327775 -1.4616038 0.36355779 83
-1.3568227 -1.4373435 0.37613028 476.66666
-4.3724899 -0.51041424 0.30775398 93
-2.4913592 0.99640781 0.36904615 287
0.15692548 2.1998653 0.32070667 57
-0.71917373 2.3746896 0.30995148 1233
-2.4837604 2.4669783 0.38492736 422
-0.7679168 2.4052701 0.38224357 960
-0.5463438 -1.6559043 0.47874573 322.5
-0.018020689 -1.6048479 0.4125503 7
-2.3051164 -1.599167 0.47025058 544
0.46071655 -1.5223454 0.44212493 460.66666
-1.347378 -1.4331611 0.472431 651
-2.4958191 0.98954535 0.44002858 194
-2.4040012 2.0253615 0.42071918 465
-0.83349735 2.4426081 0.45256394 725
0.03063798 2.4217262 0.44327468 723.5
-2.2749362 3.207247 0.42288417 234
-2.0124967 3.5250099 0.43059623 146
-0.57593238 -1.632609 0.59086919 959
0.11234593 -1.6098216 0.5845139 40
-2.3453755 -1.5694149 0.54026347 19
-0.35901111 -1.5462518 0.5386216 21
0.46981022 -1.5027027 0.56379712 275
-1.3227868 -1.4394847 0.57171029 605
-5.9099631 -0.29816249 0.54607391 116
-2.4722431 0.9826678 0.5683713 153
-2.4530625 1.1291298 0.5050686 538
-2.3732314 2.1912203 0.55377334 511
-0.87496239 2.5337639 0.5399217 128
-0.66562229 2.6438727 0.54552871 303
-2.2500138 3.2018747 0.51007074 26
-2.0131571 3.3669086 0.50692791 84
-3.060976 -1.709982 0.6732533 11
-0.53277069 -1.6567192 0.66616493 299.5
0.11398107 -1.6124508 0.65383148 134
-2.3170433 -1.5857215 0.6455375 302.5
-1.5768455 -1.5901999 0.65638185 967
0.46361476 -1.5101826 0.63255513 562
-1.3818095 -1.4585284 0.69592792 287
0.46531779 -1.493214 0.69443285 434
-5.8870049 -0.31584135 0.69945592 135
-2.4319141 0.96912014 0.69318444 63
-2.4565027 1.0839264 0.63900983 597
-2.3679187 2.193038 0.67564297 576
-0.84818906 2.5612626 0.60934389 96
-0.86033016 2.603812 0.69155276 58
-0.6309793 2.6481183 0.61112386 395
0.51705164 2.6129761 0.615592 519.5
-0.75199956 4.2704296 0.65044206 19
-0.54444665 -1.6519841 0.7654388 705.5
0.19263735 -1.6125948 0.7506538 815.5
-2.3024795 -1.5962352 0.75306314 586
0.47644705 -1.5172893 0.75227964 445
-1.4086863 -1.496492 0.76888978 503
0.45011589 -1.1310149 0.77166831 93
-3.9482627 -0.70637655 0.77043897 16
-2.4538617 1.1269104 0.78365147 547
-2.3765028 2.2042804 0.75872111 712
-0.71509498 2.6055276 0.74860913 323
0.5228802 2.6154103 0.75512755 486
-0.52732295 -1.6437168 0.86384761 374
0.12582667 -1.6125934 0.84844881 509.5
-2.3028009 -1.5903679 0.82499593 513
-2.2902603 -1.5866454 0.89618731 543
0.46975037 -1.5163521 0.8771165 901.5
-2.3613281 2.1915314 0.83924711 712
-0.53378576 -1.6376748 0.97266495 793
0.12987849 -1.6252494 0.96251655 557.5
-2.3334408 -1.5826929 0.98381966 53
-1.0878092 -1.5274031 0.97749263 85
0.48214975 -1.5250144 0.96111786 765
0.44999737 -0.82668 0.90354443 227
-2.3552923 2.1941237 0.96491873 609
-0.5291422 -1.656262 1.066915 620
0.13167077 -1.6150188 1.0696769 658
-2.322634 -1.5876426 1.0999311 233
-1.0927532 -1.5346099 1.039472 69
0.4726975 -1.5139475 1.039112 935
-2.4487262 1.1233664 1.00176 490
-2.3020391 2.1875527 1.079951 40
0.40079659 3.278868 1.0732765 254
-0.60530841 -1.6333033 1.1372576 1046
-0.5638079 -1.6286536 1.180881 1019
0.13615265 -1.6034539 1.1560848 931
-1.0840306 -1.5293078 1.1010399 82
0.47333708 -1.4979634 1.1201931 609
0.37678581 3.3555393 1.1904132 111
-0.78818667 5.7384367 1.1553488 44
-3.0188453 -1.6861132 1.2095715 12
-0.58771592 -1.6241252 1.2574555 831
0.14450139 -1.6134213 1.2568357 943
-2.3257248 -1.5739067 1.2608325 51
0.45768887 -1.509272 1.2518451 1222
-2.3459923 2.246145 1.2875124 13
0.4144592 3.2896864 1.2621272 273
-0.52808189 -1.6391716 1.3524961 532.5
0.14438379 -1.6256936 1.3648001 736
-2.2826946 -1.5817581 1.3712865 341
-1.0872473 -1.5241499 1.3725636 54
-2.3895082 1.2143629 1.3949617 13
-2.3325329 1.915887 1.3757958 54
-2.2999864 2.201591 1.3514974 9
-14.477126 3.4290955 1.3477931 6
-3.0315931 -1.6575779 1.4046955 11
-0.39170715 -1.6570483 1.4377449 169
-2.1681299 -1.5803738 1.4115627 370
0.32679588 -1.5089529 1.4258242 19
0.47024086 -1.5237551 1.4696407 739
0.47115773 -1.4587375 1.4970249 368
-0.51288676 5.9241743 1.4856453 27
-1.0872577 -1.520395 1.5588577 45
-4.1322932 -1.3881061 1.5280223 37
0.42011386 3.3128791 1.5610558 426
0.37034884 3.6665306 1.508087 368
-0.39928168 5.6255817 1.5530416 9
-3.0061624 -1.6796576 1.6026279 9
-1.0862558 -1.5022403 1.6767536 36
-0.94231242 -1.5275692 1.694841 41
0.42363578 3.2943711 1.6587199 319
0.36460671 3.6728699 1.621121 281
-3.0327258 -1.6363947 1.7061219 12
-2.9532809 -1.5885119 1.7695472 7
-2.6806204 -1.5772514 1.7354701 13
-2.5242679 -1.5732762 1.765588 10
-2.3283517 -1.5727108 1.7552893 23
-0.79776973 -1.5386611 1.7325583 27
-14.415564 3.3592327 1.7323545 7
-0.61839229 5.6213756 1.7120264 8
-2.2365396 -1.5584069 1.8083646 203
-1.0476135 -1.563538 1.8877225 22
0.42326063 3.3108747 1.8842887 98
0.42590415 3.312597 1.9883916 176
-6.6825886 8.0003977 1.9020168 13
-5.343214 -0.60455829 2.0345042 14
-5.102634 -0.53708208 2.0889773 11
-14.386368 3.432585 2.0708818 12
-0.47036177 -2.9721599 2.1946042 16
-4.3705964 -0.7379781 2.1974235 18
-4.8968458 -0.55114287 2.1461234 40
0.46129087 3.2970943 2.1075382 103
-0.31282306 -5.0085788 2.2878284 9
-0.71094769 -3.0219357 2.2692873 11
-3.3116267 -0.92924392 2.2883632 14
-4.2032018 -0.89018011 2.2708426 10
-4.7605176 -0.5437867 2.2329626 12
-0.42839909 6.9722462 2.2998452 14
-3.4530087 -1.5968764 2.3846076 134
-3.7857423 -1.0566812 2.3393707 10
-2.9846849 -1.0224378 2.338984 16
-2.8469422 -1.0675181 2.3607359 22
-2.5163624 -1.0525316 2.3487289 18
-2.3916564 -1.0554888 2.3863771 10
-3.1535504 -0.96377659 2.3031161 24
-2.6217594 -0.98874164 2.3070219 17
-4.0441222 -0.81062245 2.3064296 15
-3.8448029 -0.77101868 2.3331497 6
-3.0510573 -0.69693327 2.319391 15
-2.9989133 -0.63845253 2.3799219 12
-2.7565191 -0.66397208 2.3341625 15
-2.500407 -0.63229358 2.3536251 10
-2.3488057 -0.62372506 2.318197 23
-4.3535461 -0.53426009 2.3171318 8
0.02869687 4.7704902 2.3986011 71
-6.4011102 8.0030422 2.3896842 16
-3.3022747 -1.5830247 2.4376481 47
-2.2589123 -1.1156977 2.4043248 24
-2.164078 -1.064414 2.4398713 9
-14.554365 -0.95654035 2.4593251 9
-3.7897801 -0.66238886 2.4103804 17
-3.5482695 -0.67041636 2.4024534 10
-3.3791738 -0.6324262 2.4008613 21
-4.3396349 -0.48469329 2.4411082 8
0.21601123 2.5199726 2.4504907 22
0.074390016 2.6489565 2.4256942 51
0.07552214 2.7795794 2.4342945 49
0.061275333 2.9183941 2.4102385 30
0.13203607 3.0470598 2.4057529 269
-14.431595 3.3720562 2.4694774 8
0.066388108 3.3277595 2.4760189 20
0.14266615 3.4148486 2.4244573 54
-0.012484025 5.1296501 2.4162719 21
-0.20747736 6.2514129 2.4063687 14
-0.74382246 6.8099766 2.4497221 16
-3.2959986 -1.5737126 2.5529416 65
-2.8656576 -0.53586417 2.5108011 13
-4.2687082 -0.47642517 2.5555215 11
-3.1227648 7.5603294 2.5183127 10
-3.2577696 -1.5645401 2.6819446 38
0.4206349 3.1974103 2.6569684 35
-5.1780925 7.700624 2.6391413 7
-14.492308 -0.77228528 2.7934737 5
-6.8868313 7.9746785 2.7435431 9
-13.11749 -0.69237447 2.8736875 17
-14.423881 3.3820844 3.21262 7
-14.273749 -1.5233245 3.5028028 6
-14.407561 3.2210863 3.5710516 6
-3.8950562 8.0664196 3.5155661 9
-2.1637533 8.106163 3.5001793 6
-2.1378376 8.1839924 3.7835214 8
-14.290138 -1.4544041 3.8889675 10
-4.7330794 8.1766853 3.9876111 15
-2.2336612 8.2015228 4.0534487 8
-14.331939 -2.2146084 4.308979 5
-2.2519119 8.1640005 4.3124123 5
-6.0708141 8.1170082 4.6076646 10
-5.3734441 8.1112661 4.6996784 7
-3.8853834 8.2343493 4.6674862 7
-0.73692828 6.3971896 4.8296142 7
-1.8731372 5.0136833 4.9827218 18
-1.9688398 6.9803677 4.9113564 5
-4.3356261 8.0931597 4.9960508 5
-5.1966105 8.1104975 4.9624429 7
-5.5272684 2.0877531 5.0760803 8
-5.1156497 2.0850449 5.0291557 9
-4.8460536 2.1141353 5.0313835 9
-1.8506298 5.3549137 5.0394154 8
-1.7229602 8.132452 5.0293174 7
